<svg width="390" height="603" viewBox="0 0 390 603" fill="none" xmlns="http://www.w3.org/2000/svg">
<g clip-path="url(#clip0_38_17)">
<path d="M-201.566 489.297L-228.19 492.469L-216.171 647.864C-216.077 649.079 -214.99 649.972 -213.779 649.828L486.603 566.388C487.769 566.249 488.606 565.198 488.481 564.03L430.454 21.8841L407.907 82.6339C407.195 84.554 404.453 84.4776 403.849 82.5207L381.412 9.89138C381.106 8.90222 380.137 8.27267 379.109 8.39514L341.226 12.9084C340.501 12.9948 339.87 13.4439 339.551 14.1005L318.291 57.8592C317.758 58.956 316.419 59.3882 315.346 58.8099L282.919 41.3417C281.565 40.6121 279.905 41.504 279.767 43.0361L269.012 161.848C268.833 163.816 266.314 164.516 265.146 162.922L237.06 124.577C236.115 123.288 234.144 123.447 233.419 124.871L228.698 134.146C228.081 135.359 226.503 135.697 225.442 134.843L211.839 123.889C210.613 122.902 208.778 123.527 208.41 125.057L195.13 180.226C194.852 181.381 193.689 182.09 192.535 181.807L170.164 176.33C168.873 176.014 167.608 176.937 167.516 178.263L158.098 313.182C158.056 313.778 157.768 314.33 157.302 314.704L124.236 341.283C123.195 342.12 121.65 341.811 121.01 340.639L88.5189 281.115C87.5982 279.428 85.0946 279.711 84.5731 281.56L77.0117 308.376C76.8815 308.838 76.6002 309.243 76.2128 309.526L53.5292 326.094C53.0373 326.454 52.7214 327.005 52.6605 327.611L45.8881 395.01C45.8187 395.7 45.4191 396.315 44.8158 396.658L13.8269 414.307C13.3768 414.564 13.0348 414.974 12.8639 415.463L-3.41097 462.027C-3.97882 463.652 -6.13288 463.979 -7.15768 462.596L-26.4259 436.6C-27.2727 435.457 -28.9767 435.441 -29.8457 436.566L-73.9313 493.666C-74.6797 494.635 -76.0866 494.782 -77.0189 493.988L-95.3325 478.388C-96.2967 477.567 -97.7589 477.756 -98.4826 478.795L-111.467 497.445C-111.817 497.947 -112.365 498.276 -112.973 498.349L-145.234 502.192C-145.956 502.278 -146.673 501.992 -147.138 501.432L-184.722 456.132C-185.778 454.86 -187.816 455.211 -188.385 456.763L-199.807 487.906C-200.084 488.664 -200.764 489.202 -201.566 489.297Z" fill="url(#paint0_linear_38_17)"/>
<path d="M-223.995 491.969L-202.872 489.453C-201.269 489.262 -199.909 488.187 -199.354 486.671L-189.669 460.262C-188.53 457.157 -184.454 456.455 -182.342 459.001L-147.883 500.534C-146.954 501.654 -145.52 502.226 -144.075 502.054L-113.929 498.462C-112.713 498.317 -111.617 497.66 -110.917 496.654L-100.543 481.754C-98.8669 479.347 -95.3241 479.295 -93.5779 481.651L-77.5371 503.293C-75.7305 505.73 -72.0334 505.572 -70.4414 502.99L-31.4376 439.715C-29.8456 437.132 -26.1484 436.974 -24.3419 439.412L-9.56865 459.344C-7.51907 462.109 -3.2109 461.454 -2.07522 458.205L12.5988 416.221C12.9405 415.243 13.6247 414.422 14.5247 413.91L43.854 397.206C45.0606 396.519 45.8598 395.29 45.9986 393.908L52.5647 328.564C52.6865 327.351 53.3182 326.248 54.3021 325.53L75.4741 310.065C76.3342 309.437 76.9297 308.511 77.1447 307.468L82.6027 280.985C83.4237 277.002 88.8109 276.292 90.6354 279.927L119.857 338.144C121.082 340.585 124.247 341.274 126.376 339.562L156.571 315.291C157.503 314.542 158.079 313.439 158.163 312.247L167.338 180.802C167.523 178.149 170.053 176.303 172.636 176.935L190.444 181.295C192.751 181.86 195.078 180.442 195.633 178.133L207.53 128.708C208.288 125.562 212.124 124.356 214.545 126.503L223.144 134.129C225.612 136.317 229.524 135.016 230.19 131.786L230.789 128.879C231.553 125.168 236.404 124.2 238.535 127.334L262.937 163.23C265.217 166.585 270.449 165.192 270.759 161.147L279.555 46.3764C279.792 43.2833 283.134 41.4575 285.865 42.9287L313.377 57.7494C315.524 58.9061 318.202 58.0416 319.268 55.848L339.039 15.154C339.677 13.8408 340.939 12.9424 342.389 12.7697L377.334 8.60648C379.39 8.36153 381.328 9.62064 381.939 11.599L401.625 75.3223C402.869 79.3493 408.567 79.3535 409.817 75.3283L426.259 22.3837" stroke="#D2EB62" stroke-width="4.28835" stroke-linecap="round"/>
</g>
<defs>
<linearGradient id="paint0_linear_38_17" x1="75.7974" y1="44.53" x2="132.815" y2="523.127" gradientUnits="userSpaceOnUse">
<stop stop-color="#D2EB62"/>
<stop offset="1" stop-opacity="0"/>
</linearGradient>
<clipPath id="clip0_38_17">
<rect width="390" height="603" fill="white"/>
</clipPath>
</defs>
</svg>
