<svg width="6400" height="3600" viewBox="0 0 6400 3600" fill="none" xmlns="http://www.w3.org/2000/svg">
<g clip-path="url(#clip0_603_2)">
<rect width="6400" height="3600" fill="black"/>
<g clip-path="url(#clip1_603_2)">
<path d="M-1183.85 1052.77L-1311.48 1067.98L-1314.1 1297.25C-1314.11 1298.54 -1312.98 1299.55 -1311.7 1299.4L1919.51 914.45C1920.65 914.313 1921.49 913.296 1921.39 912.147L1857.2 120.082L1721.84 227.728C1720.89 228.481 1719.51 228.303 1718.79 227.335L1637.56 118.808C1637.1 118.195 1636.35 117.873 1635.59 117.964L1449.88 140.088C1449.56 140.127 1449.24 140.24 1448.97 140.42L1329.31 218.285C1328.9 218.551 1328.42 218.67 1327.93 218.621L1168.11 202.497C1167.23 202.408 1166.39 202.869 1165.99 203.658L1067.93 396.205C1067.42 397.202 1066.23 397.641 1065.2 397.212L932.561 342.205C931.919 341.938 931.187 342 930.599 342.37L892.721 366.172C892.258 366.463 891.702 366.566 891.165 366.46L815.394 351.519C814.663 351.374 813.908 351.621 813.403 352.169L726.255 446.71C725.849 447.15 725.278 447.4 724.679 447.401L606.95 447.443C606.107 447.443 605.342 447.938 604.996 448.707L511.027 657.524C510.778 658.075 510.309 658.496 509.733 658.683L338.197 714.389C337.6 714.583 336.948 714.506 336.413 714.178L198.34 629.433C197.505 628.921 196.429 629.04 195.725 629.722L143.496 680.422C143.251 680.66 142.953 680.836 142.626 680.935L28.1037 715.72C27.5615 715.885 27.1065 716.257 26.8382 716.756L-29.6268 821.798C-29.9103 822.326 -30.4017 822.71 -30.9819 822.859L-184.931 862.4C-185.238 862.479 -185.524 862.625 -185.768 862.828L-284.546 944.927C-285.155 945.433 -285.994 945.562 -286.727 945.263L-379.322 907.467C-379.871 907.243 -380.488 907.256 -381.027 907.504L-616.673 1015.81C-617.094 1016 -617.566 1016.05 -618.018 1015.95L-708.994 996.442C-709.468 996.341 -709.963 996.403 -710.397 996.618L-784.963 1033.64C-785.183 1033.75 -785.42 1033.82 -785.663 1033.85L-942.64 1052.55C-942.964 1052.59 -943.294 1052.56 -943.602 1052.45L-1109.06 994.478C-1109.76 994.233 -1110.54 994.366 -1111.11 994.829L-1182.76 1052.31C-1183.07 1052.56 -1183.45 1052.72 -1183.85 1052.77Z" fill="url(#paint0_linear_603_2)"/>
<path d="M-1292.23 1065.68L-1184.46 1052.84C-1183.66 1052.75 -1182.91 1052.43 -1182.28 1051.93L-1112.04 995.574C-1110.89 994.648 -1109.34 994.382 -1107.94 994.871L-944.072 1052.28C-943.455 1052.5 -942.797 1052.57 -942.147 1052.49L-786.032 1033.9C-785.545 1033.84 -785.071 1033.7 -784.632 1033.48L-711.462 997.147C-710.359 996.599 -709.074 996.552 -707.934 997.017L-616.963 1034.15C-615.771 1034.64 -614.424 1034.56 -613.293 1033.95L-381.97 908.088C-380.839 907.473 -379.492 907.398 -378.3 907.885L-287.919 944.777C-286.453 945.376 -284.776 945.117 -283.557 944.105L-186.139 863.136C-185.651 862.731 -185.079 862.439 -184.465 862.281L-31.8929 823.093C-30.7326 822.795 -29.7498 822.026 -29.1825 820.97L26.4184 717.536C26.955 716.538 27.8649 715.793 28.9493 715.463L142.097 681.095C142.77 680.891 143.383 680.524 143.88 680.027L194.587 629.408C196 627.998 198.198 627.749 199.891 628.807L335.56 713.635C336.634 714.307 337.952 714.469 339.158 714.077L508.829 658.977C509.98 658.603 510.919 657.761 511.415 656.658L604.426 449.971C605.118 448.432 606.648 447.443 608.335 447.442L723.739 447.401C724.936 447.401 726.079 446.9 726.89 446.019L812.603 353.036C813.606 351.948 815.099 351.454 816.553 351.729L890.374 365.692C891.421 365.89 892.503 365.692 893.411 365.136L930.139 342.64C931.308 341.924 932.75 341.81 934.017 342.334L1063.84 395.985C1065.9 396.84 1068.28 395.96 1069.3 393.965L1165.32 204.969C1166.12 203.391 1167.81 202.467 1169.58 202.645L1327.18 218.545C1328.15 218.643 1329.13 218.406 1329.95 217.873L1448.55 140.693C1449.1 140.334 1449.72 140.107 1450.38 140.029L1634.36 118.11C1635.88 117.929 1637.38 118.573 1638.3 119.799L1717.29 225.333C1718.8 227.355 1721.73 227.637 1723.6 225.941L1837.94 122.377" stroke="#D2EB62" stroke-width="4.28835" stroke-linecap="round"/>
</g>
</g>
<defs>
<linearGradient id="paint0_linear_603_2" x1="236.001" y1="284.704" x2="318.941" y2="980.893" gradientUnits="userSpaceOnUse">
<stop stop-color="#D2EB62"/>
<stop offset="1" stop-opacity="0"/>
</linearGradient>
<clipPath id="clip0_603_2">
<rect width="6400" height="3600" fill="white"/>
</clipPath>
<clipPath id="clip1_603_2">
<rect width="6400" height="3600" fill="white"/>
</clipPath>
</defs>
</svg>
